HIERARCHY
ROOT Hips
{
    OFFSET 0.000000 0.000000 0.000000
    CHANNELS 6 Xposition Yposition Zposition Zrotation Xrotation Yrotation
    JOINT Spine
    {
        OFFSET -0.000000 14.517291 0.000000
        CHANNELS 3 Zrotation Xrotation Yrotation
        JOINT Spine1
        {
            OFFSET -0.000000 37.558300 0.000000
            CHANNELS 3 Zrotation Xrotation Yrotation
            JOINT Neck
            {
                OFFSET -0.000000 37.404057 3.400369
                CHANNELS 3 Zrotation Xrotation Yrotation
                JOINT Head
                {
                    OFFSET -0.000000 24.785618 -3.540803
                    CHANNELS 3 Zrotation Xrotation Yrotation
                    End Site
                    {
                        OFFSET -0.000000 35.408028 0.000000
                    }
                }
            }
            JOINT LeftShoulder
            {
                OFFSET 6.992933 33.973492 -0.192664
                CHANNELS 3 Zrotation Xrotation Yrotation
                JOINT LeftArm
                {
                    OFFSET 21.527611 0.000000 0.000000
                    CHANNELS 3 Zrotation Xrotation Yrotation
                    JOINT LeftForeArm
                    {
                        OFFSET 56.353916 0.000000 0.000000
                        CHANNELS 3 Zrotation Xrotation Yrotation
                        JOINT LeftHand
                        {
                            OFFSET 47.774071 0.000000 0.000000
                            CHANNELS 3 Zrotation Xrotation Yrotation
                            End Site
                            {
                                OFFSET 26.556021 0.000000 0.000000
                            }
                        }
                    }
                }
            }
            JOINT RightShoulder
            {
                OFFSET -7.065357 33.973492 -0.192664
                CHANNELS 3 Zrotation Xrotation Yrotation
                JOINT RightArm
                {
                    OFFSET -21.527611 0.000000 0.000000
                    CHANNELS 3 Zrotation Xrotation Yrotation
                    JOINT RightForeArm
                    {
                        OFFSET -56.353916 0.000000 0.000000
                        CHANNELS 3 Zrotation Xrotation Yrotation
                        JOINT RightHand
                        {
                            OFFSET -47.774071 0.000000 0.000000
                            CHANNELS 3 Zrotation Xrotation Yrotation
                            End Site
                            {
                                OFFSET -26.556021 0.000000 0.000000
                            }
                        }
                    }
                }
            }
        }
    }
    JOINT LeftUpLeg
    {
        OFFSET 17.704014 0.000000 0.000000
        CHANNELS 3 Zrotation Xrotation Yrotation
        JOINT LeftLeg
        {
            OFFSET -0.000000 -81.181816 0.000000
            CHANNELS 3 Zrotation Xrotation Yrotation
            JOINT LeftFoot
            {
                OFFSET -0.000000 -62.821102 0.000000
                CHANNELS 3 Zrotation Xrotation Yrotation
                JOINT LeftToeBase
                {
                    OFFSET -0.000000 -11.507608 26.556021
                    CHANNELS 3 Zrotation Xrotation Yrotation
                    End Site
                    {
                        OFFSET -0.000000 0.000000 7.081605
                    }
                }
            }
        }
    }
    JOINT RightUpLeg
    {
        OFFSET -17.704014 0.000000 0.000000
        CHANNELS 3 Zrotation Xrotation Yrotation
        JOINT RightLeg
        {
            OFFSET -0.000000 -81.181816 0.000000
            CHANNELS 3 Zrotation Xrotation Yrotation
            JOINT RightFoot
            {
                OFFSET -0.000000 -62.821102 0.000000
                CHANNELS 3 Zrotation Xrotation Yrotation
                JOINT RightToeBase
                {
                    OFFSET -0.000000 -11.507608 26.556021
                    CHANNELS 3 Zrotation Xrotation Yrotation
                    End Site
                    {
                        OFFSET -0.000000 0.000000 7.081605
                    }
                }
            }
        }
    }
}
MOTION
Frames:    10
Frame Time:    0.008333
3.435009    147.114243    49.489529    4.921521    0.086238    -72.697899    1.582420    0.923747    1.288525    -2.124778    2.752134    0.483698    16.583097    3.853737    14.376056    -13.339273    2.028951    11.419158    9.356277    4.280798    -14.348135    -11.295505    -2.859071    -21.392773    10.586266    0.730967    -55.305912    1.571072    5.680549    -42.322254    -10.787229    0.198529    -4.276609    28.419004    -21.315100    41.021240    6.873077    -20.746567    106.336189    13.387409    -25.878389    30.095678    25.353624    -26.083218    -11.972180    -14.571391    40.619175    -25.257748    -10.991409    -24.509308    37.932350    0.000000    0.000000    0.000000    -15.366284    -25.043842    1.283281    6.490580    55.344643    -3.742601    10.341868    -30.624296    3.574091    0.000000    0.000000    0.000000    
3.425905    147.128479    49.513142    4.898221    0.100651    -72.696693    1.584934    0.919929    1.283660    -2.096090    2.756824    0.481484    16.581890    3.863133    14.361745    -13.310771    2.062678    11.413148    9.352978    4.300038    -14.358365    -11.302536    -2.842436    -21.375761    10.607718    0.744165    -55.315887    1.579808    5.701424    -42.406490    -10.782230    0.199617    -4.284595    28.397137    -21.304434    40.973579    6.880101    -20.721832    106.339119    13.401996    -25.860300    30.092022    25.374517    -26.061539    -12.001764    -14.619895    40.604591    -25.195620    -10.990230    -24.501940    37.909313    0.000000    0.000000    0.000000    -15.350775    -24.999725    1.270762    6.468672    55.300385    -3.741295    10.340220    -30.608643    3.595313    0.000000    0.000000    0.000000    
3.418857    147.140366    49.538311    4.882596    0.108327    -72.700089    1.585913    0.915438    1.282080    -2.084011    2.762326    0.480783    16.572304    3.839489    14.351146    -13.253479    2.114486    11.412628    9.354521    4.299630    -14.365281    -11.300365    -2.799110    -21.350067    10.630984    0.739949    -55.354610    1.572117    5.717624    -42.374760    -10.765764    0.209276    -4.308178    28.369272    -21.297182    40.947041    6.886323    -20.701153    106.338921    13.379420    -25.855347    30.076132    25.384129    -26.046377    -12.022067    -14.659955    40.601200    -25.145468    -10.978684    -24.492016    37.907455    0.000000    0.000000    0.000000    -15.341105    -24.966402    1.275451    6.445581    55.264118    -3.725217    10.376753    -30.594469    3.605130    0.000000    0.000000    0.000000    
3.409855    147.148392    49.560963    4.861943    0.109948    -72.703819    1.570243    0.922849    1.279025    -2.062299    2.759339    0.479157    16.601875    3.857891    14.346933    -13.256807    2.122576    11.408048    9.366266    4.319533    -14.358495    -11.307085    -2.819162    -21.343248    10.623065    0.782181    -55.408115    1.581067    5.757490    -42.428734    -10.744401    0.195424    -4.306758    28.321211    -21.287685    40.877682    6.895393    -20.684982    106.346962    13.384993    -25.848698    30.092318    25.393021    -26.021753    -12.055226    -14.701707    40.592613    -25.110308    -10.982229    -24.503777    37.896820    0.000000    0.000000    0.000000    -15.334462    -24.929939    1.271748    6.420467    55.237499    -3.705211    10.392217    -30.583803    3.605027    0.000000    0.000000    0.000000    
3.407444    147.156998    49.587482    4.852764    0.112120    -72.707275    1.565878    0.937342    1.279741    -2.052621    2.734272    0.478686    16.616669    3.857097    14.343275    -13.244752    2.146147    11.406554    9.362258    4.327564    -14.357508    -11.296838    -2.798584    -21.320751    10.647831    0.805701    -55.480011    1.585433    5.800913    -42.423180    -10.740514    0.198722    -4.323750    28.309525    -21.288723    40.835560    6.914575    -20.661360    106.372345    13.408876    -25.848700    30.080177    25.394114    -26.015169    -12.069056    -14.739506    40.594593    -25.049839    -10.970102    -24.489880    37.880531    0.000000    0.000000    0.000000    -15.334240    -24.908768    1.259588    6.386371    55.216801    -3.658584    10.392838    -30.576622    3.592517    0.000000    0.000000    0.000000    
3.406000    147.165268    49.612854    4.840824    0.116749    -72.708519    1.563335    0.947664    1.275647    -2.042551    2.728204    0.477028    16.644552    3.863257    14.342716    -13.254035    2.141643    11.401983    9.366246    4.322331    -14.348379    -11.297075    -2.807578    -21.301884    10.637224    0.852628    -55.555733    1.630812    5.833981    -42.394932    -10.736056    0.197386    -4.347283    28.291248    -21.287971    40.804901    6.911299    -20.653709    106.381187    13.400209    -25.843567    30.055836    25.397974    -26.006397    -12.096585    -14.786002    40.589817    -25.000578    -10.939640    -24.471491    37.880077    0.000000    0.000000    0.000000    -15.332930    -24.884621    1.262321    6.388524    55.190094    -3.658485    10.378176    -30.562868    3.584188    0.000000    0.000000    0.000000    
3.407610    147.170395    49.636055    4.842619    0.111305    -72.713295    1.553354    0.950294    1.275486    -2.053361    2.714409    0.476930    16.670443    3.868376    14.343621    -13.239051    2.138447    11.402136    9.388604    4.334753    -14.354262    -11.292575    -2.793607    -21.263340    10.701771    0.872702    -55.634556    1.642501    5.892540    -42.429230    -10.711984    0.203557    -4.358415    28.268847    -21.311563    40.765884    6.923676    -20.627962    106.396301    13.386211    -25.839485    30.057638    25.387920    -26.009016    -12.104122    -14.802245    40.599918    -25.000294    -10.931087    -24.478542    37.889942    0.000000    0.000000    0.000000    -15.342363    -24.878298    1.254990    6.363719    55.178116    -3.645433    10.383074    -30.560652    3.592830    0.000000    0.000000    0.000000    
3.409923    147.172989    49.658276    4.847727    0.113741    -72.719170    1.553727    0.944330    1.277994    -2.068176    2.719429    0.478180    16.690086    3.842593    14.346646    -13.215606    2.144730    11.402680    9.411218    4.337310    -14.335745    -11.283513    -2.778253    -21.254690    10.763673    0.879996    -55.704395    1.665482    5.931036    -42.497795    -10.704382    0.183982    -4.370694    28.247719    -21.314138    40.708389    6.923952    -20.632290    106.422188    13.357675    -25.857910    30.034199    25.384096    -26.022299    -12.109248    -14.824389    40.622070    -24.959345    -10.943327    -24.479031    37.874321    0.000000    0.000000    0.000000    -15.343965    -24.879148    1.247208    6.332803    55.165936    -3.611900    10.388332    -30.554516    3.597139    0.000000    0.000000    0.000000    
3.417710    147.179413    49.679558    4.850784    0.118069    -72.721008    1.549267    0.948017    1.277413    -2.067997    2.716774    0.477988    16.713898    3.835481    14.352028    -13.218384    2.131524    11.402580    9.424911    4.330036    -14.324119    -11.276664    -2.777466    -21.239845    10.825604    0.914707    -55.772308    1.689022    5.996765    -42.550564    -10.701532    0.171507    -4.374949    28.223225    -21.347494    40.648575    6.931484    -20.608995    106.443390    13.313988    -25.860085    30.020672    25.378227    -26.036497    -12.111084    -14.834598    40.641361    -24.946619    -10.924706    -24.474081    37.873505    0.000000    0.000000    0.000000    -15.346137    -24.875046    1.246976    6.331725    55.145214    -3.609878    10.386894    -30.543615    3.572542    0.000000    0.000000    0.000000    
3.425878    147.179749    49.699333    4.868485    0.121652    -72.723473    1.462516    1.012205    1.306044    -1.921517    2.594563    0.481990    16.649660    3.810688    14.326367    -13.173699    2.158300    11.388036    9.362708    4.363263    -14.337772    -11.276350    -2.800017    -21.237648    10.880125    0.975774    -55.852577    1.752110    6.071483    -42.573715    -10.766448    0.223645    -4.465495    28.203033    -21.346519    40.642693    6.913126    -20.633394    106.453880    13.298859    -25.863621    30.045401    25.373316    -26.067089    -12.100248    -14.848307    40.670387    -24.938635    -10.906827    -24.466743    37.881279    0.000000    0.000000    0.000000    -15.356292    -24.893005    1.231563    6.300535    55.145164    -3.586256    10.404975    -30.531780    3.597120    0.000000    0.000000    0.000000    
